<svg width="205" height="37" viewBox="0 0 205 37" fill="none" xmlns="http://www.w3.org/2000/svg">
<path d="M13.1797 18.0675C13.1797 16.213 14.6602 14.7773 16.4369 14.7773C18.2728 14.7773 19.6941 16.2729 19.6941 18.0675C19.6941 19.9219 18.2136 21.3576 16.4369 21.3576C14.6602 21.3576 13.1797 19.8621 13.1797 18.0675Z" fill="#F68A39"/>
<path d="M13.1797 10.8887C13.1797 9.45299 14.6602 8.31641 16.4369 8.31641C18.2728 8.31641 19.6941 9.45299 19.6941 10.8887C19.6941 12.3244 18.2136 13.461 16.4369 13.461C14.6602 13.461 13.1797 12.3244 13.1797 10.8887Z" fill="#FAAA6F"/>
<path d="M8.68042 17.348C7.43675 16.6301 7.19986 14.7757 8.0882 13.1605C8.97653 11.5454 10.7532 10.8874 11.9376 11.6052C13.1813 12.3231 13.4182 14.1775 12.5299 15.7926C11.6415 17.348 9.92408 18.0658 8.68042 17.348Z" fill="#FAAA6F"/>
<path d="M11.9376 24.5221C10.694 25.24 8.97653 24.5221 8.0882 22.9668C7.19986 21.4115 7.43675 19.4972 8.68042 18.7794C9.92408 18.0615 11.6415 18.7794 12.5299 20.3347C13.4182 21.9498 13.1813 23.8043 11.9376 24.5221Z" fill="#FAAA6F"/>
<path d="M19.6941 25.3049C19.6941 26.7406 18.2136 27.8772 16.4369 27.8772C14.601 27.8772 13.1797 26.7406 13.1797 25.3049C13.1797 23.8692 14.6602 22.7326 16.4369 22.7326C18.2136 22.6728 19.6941 23.8692 19.6941 25.3049Z" fill="#FAAA6F"/>
<path d="M24.2501 18.8419C25.4938 19.5597 25.7307 21.4141 24.8424 23.0293C23.954 24.6444 22.1774 25.3025 20.9929 24.5846C19.7493 23.8668 19.5124 22.0123 20.4007 20.3972C21.289 18.8419 23.0065 18.124 24.2501 18.8419Z" fill="#FAAA6F"/>
<path d="M20.9929 11.6622C22.2366 10.9443 23.954 11.6622 24.8424 13.2175C25.7307 14.8326 25.4938 16.6871 24.2501 17.4049C23.0065 18.1228 21.289 17.4049 20.4007 15.8496C19.5124 14.2344 19.7493 12.38 20.9929 11.6622Z" fill="#FAAA6F"/>
<path d="M13.1797 5.08613C13.1797 4.00936 14.6602 3.17188 16.4369 3.17188C18.2728 3.17188 19.6941 4.00936 19.6941 5.08613C19.6941 6.16289 18.2728 7.0602 16.4369 7.0602C14.6602 7.0602 13.1797 6.16289 13.1797 5.08613Z" fill="#FCC092"/>
<path d="M3.76286 14.4759C2.87452 13.9375 2.8153 12.2027 3.76286 10.6474C4.65119 9.03221 6.13174 8.19473 7.0793 8.73311C7.96763 9.27149 8.02685 11.0063 7.0793 12.5616C6.13174 14.1169 4.65119 14.9544 3.76286 14.4759Z" fill="#FCC092"/>
<path d="M7.02175 27.3938C6.13342 27.9322 4.65287 27.0947 3.70531 25.4796C2.81698 23.8644 2.81698 22.1895 3.70531 21.6511C4.59364 21.1127 6.0742 21.9502 7.02175 23.5653C7.91008 25.1207 7.91008 26.8554 7.02175 27.3938Z" fill="#FCC092"/>
<path d="M19.6941 31.046C19.6941 32.1228 18.2136 32.9602 16.4369 32.9602C14.601 32.9602 13.1797 32.1228 13.1797 31.046C13.1797 29.9692 14.6602 29.1317 16.4369 29.1317C18.2136 29.0719 19.6941 29.9692 19.6941 31.046Z" fill="#FCC092"/>
<path d="M29.1691 21.7175C30.0575 22.2559 30.1167 23.9907 29.1691 25.546C28.2808 27.1611 26.8003 27.9986 25.8527 27.4602C24.9644 26.9219 24.9051 25.1871 25.8527 23.6317C26.8003 22.0166 28.2808 21.1791 29.1691 21.7175Z" fill="#FCC092"/>
<path d="M25.9138 8.79561C26.8021 8.25723 28.2827 9.09471 29.2302 10.7099C30.1186 12.325 30.1186 14 29.2302 14.5384C28.3419 15.0767 26.8613 14.2393 25.9138 12.6241C24.9662 11.0688 24.9662 9.33399 25.9138 8.79561Z" fill="#FCC092"/>
<path d="M13.1797 1.01695C13.1797 0.478563 14.6602 0 16.4369 0C18.2728 0 19.6941 0.418742 19.6941 1.01695C19.6941 1.55533 18.2136 2.03389 16.4369 2.03389C14.6602 2.03389 13.1797 1.55533 13.1797 1.01695Z" fill="#FEE4CE"/>
<path d="M0.210544 12.383C-0.263234 12.0839 0.0920993 10.5884 0.980432 9.03306C1.86876 7.41791 2.99398 6.40096 3.46776 6.64024C3.94154 6.93934 3.58621 8.43485 2.69787 9.99018C1.80954 11.6053 0.684321 12.6821 0.210544 12.383Z" fill="#FEE4CE"/>
<path d="M3.53026 29.4333C3.05648 29.7324 1.93126 28.6556 1.04293 27.0405C0.154599 25.4253 -0.200734 23.9298 0.273044 23.6905C0.746821 23.3914 1.87204 24.4682 2.76037 26.0833C3.58948 27.6387 3.94482 29.194 3.53026 29.4333Z" fill="#FEE4CE"/>
<path d="M19.6941 35.1107C19.6941 35.6491 18.2136 36.1276 16.4369 36.1276C14.601 36.1276 13.1797 35.7089 13.1797 35.1107C13.1797 34.5723 14.6602 34.0938 16.4369 34.0938C18.2136 34.0938 19.6941 34.5723 19.6941 35.1107Z" fill="#FEE4CE"/>
<path d="M32.667 23.752C33.1408 24.0511 32.7854 25.5466 31.8971 27.102C31.0088 28.7171 29.8835 29.7341 29.4098 29.4948C28.936 29.1957 29.2913 27.7002 30.1797 26.1449C31.068 24.5895 32.1932 23.5128 32.667 23.752Z" fill="#FEE4CE"/>
<path d="M29.4098 6.76084C29.8835 6.46173 31.0088 7.5385 31.8971 9.15365C32.7854 10.7688 33.1408 12.2643 32.667 12.5036C32.1932 12.8027 31.068 11.7259 30.1797 10.1108C29.2913 8.55545 28.936 7.00012 29.4098 6.76084Z" fill="#FEE4CE"/>
<path fill-rule="evenodd" clip-rule="evenodd" d="M45.1027 20.5771C49.6035 20.5771 50.6695 16.3896 50.6695 12.3817C50.6695 8.3737 49.6035 4.24609 45.1027 4.24609C40.6018 4.24609 39.4766 8.3737 39.4766 12.3817C39.4766 16.3896 40.6018 20.5771 45.1027 20.5771ZM41.4309 12.3817C41.4309 9.51028 41.9047 5.7416 45.1027 5.7416C48.2414 5.7416 48.7152 9.51028 48.7152 12.3817C48.7152 15.253 48.2414 19.1414 45.1027 19.1414C41.9639 19.0815 41.4309 15.1932 41.4309 12.3817Z" fill="white"/>
<path fill-rule="evenodd" clip-rule="evenodd" d="M53.3952 25.244H54.9349V18.5441H54.9942C55.231 19.3218 55.9417 20.578 57.8368 20.578C60.5018 20.578 61.5086 17.7067 61.5086 14.7755C61.5086 11.3059 60.4426 9.15234 57.7776 9.15234C56.0602 9.15234 55.1718 10.4684 54.9349 11.2461H54.8757V9.39162H53.3359V25.244H53.3952ZM54.9349 14.8353C54.9349 12.921 55.7048 10.4684 57.4815 10.4684C59.495 10.4684 59.7319 13.1005 59.7319 14.4764C59.7319 16.8094 59.2582 19.262 57.4223 19.262C55.8233 19.262 54.9349 17.2879 54.9349 14.8353Z" fill="white"/>
<path d="M69.2646 19.0836C68.9092 19.2032 68.7316 19.263 68.1986 19.263C66.5996 19.263 66.4219 18.1265 66.4219 17.4086V10.7087H69.3238V9.39268H66.4219V5.86328L64.8821 6.88023V9.4525H63.1055V10.7686H64.8821V17.8274C64.8821 19.8014 65.7112 20.6389 67.9025 20.6389C68.3762 20.6389 68.7908 20.5791 69.2646 20.5193V19.0836Z" fill="white"/>
<path fill-rule="evenodd" clip-rule="evenodd" d="M71.5689 20.338H73.1087V9.39087H71.5689V20.338ZM71.332 6.51949H73.4048V4.42578H71.332V6.51949Z" fill="white"/>
<path d="M76.668 20.3388H78.2077V15.8522C78.2077 13.8782 79.0961 10.7077 80.932 10.7077C82.531 10.7077 82.531 12.3826 82.531 14.2969V20.3388H84.0707V15.8522C84.0707 13.8782 84.9591 10.7077 86.795 10.7077C88.394 10.7077 88.394 12.3826 88.394 14.2969V20.3388H89.9337V12.5023C89.9337 10.7077 88.9862 9.15234 87.1503 9.15234C85.196 9.15234 84.3668 10.8273 84.0707 11.6648H84.0115C83.8931 10.2291 83.1232 9.15234 81.2873 9.15234C79.1553 9.15234 78.5039 11.0666 78.267 11.9041H78.2077V9.39162H76.668V20.3388Z" fill="white"/>
<path d="M99.4091 20.3378H100.949V9.39062H99.4091V13.8772C99.4091 15.8512 98.4023 19.0217 96.3888 19.0217C94.7898 19.0217 94.7898 17.3467 94.7898 15.4325V9.39062H93.25V17.2271C93.25 19.0217 94.1383 20.577 96.0334 20.577C98.4615 20.577 99.113 18.6628 99.4091 17.8253H99.4683V20.3378H99.4091Z" fill="white"/>
<path d="M104.441 20.3388H105.981V15.8522C105.981 13.8782 106.87 10.7077 108.705 10.7077C110.304 10.7077 110.304 12.3826 110.304 14.2969V20.3388H111.844V15.8522C111.844 13.8782 112.733 10.7077 114.568 10.7077C116.167 10.7077 116.167 12.3826 116.167 14.2969V20.3388H117.707V12.5023C117.707 10.7077 116.76 9.15234 114.924 9.15234C112.969 9.15234 112.14 10.8273 111.844 11.6648H111.785C111.667 10.2291 110.897 9.15234 109.061 9.15234C106.929 9.15234 106.277 11.0666 106.04 11.9041H105.981V9.39162H104.441V20.3388Z" fill="white"/>
<path d="M130.38 10.946C129.136 10.2281 127.774 9.51028 127.774 8.13442C127.774 6.63891 128.958 5.7416 130.735 5.7416C132.393 5.7416 133.755 6.27999 134.17 6.45945V4.66484C133.637 4.5452 132.393 4.24609 130.913 4.24609C128.011 4.24609 125.879 5.56214 125.879 8.31388C125.879 10.7067 127.833 11.604 129.255 12.4415L130.617 13.2191C131.92 13.937 133.222 14.595 133.222 16.3896C133.222 18.1244 131.742 19.0815 129.847 19.0815C127.952 19.0815 126.353 18.3637 125.997 18.2441V20.0985C126.412 20.2181 127.952 20.5771 129.61 20.5771C132.571 20.5771 135.118 19.4405 135.118 16.0905C135.118 13.5781 133.4 12.6209 131.801 11.7236L130.38 10.946Z" fill="white"/>
<path fill-rule="evenodd" clip-rule="evenodd" d="M141.102 20.578C144.3 20.578 145.543 18.0656 145.543 14.8951C145.543 11.7246 144.3 9.15234 141.102 9.15234C137.904 9.15234 136.66 11.7246 136.66 14.8951C136.719 18.0656 137.904 20.578 141.102 20.578ZM138.496 14.8951C138.496 12.1434 139.384 10.4684 141.161 10.4684C142.938 10.4684 143.826 12.1434 143.826 14.8951C143.826 17.6468 142.938 19.3218 141.161 19.3218C139.384 19.262 138.496 17.6468 138.496 14.8951Z" fill="white"/>
<path d="M148.324 20.3446H149.864V4.49219H148.324V20.3446Z" fill="white"/>
<path d="M159.515 20.3378H161.054V9.39062H159.515V13.8772C159.515 15.8512 158.508 19.0217 156.494 19.0217C154.895 19.0217 154.895 17.3467 154.895 15.4325V9.39062H153.355V17.2271C153.355 19.0217 154.244 20.577 156.139 20.577C158.567 20.577 159.218 18.6628 159.515 17.8253H159.574V20.3378H159.515Z" fill="white"/>
<path d="M169.702 19.0836C169.347 19.2032 169.169 19.263 168.636 19.263C167.037 19.263 166.859 18.1265 166.859 17.4086V10.7087H169.761V9.39268H166.859V5.86328L165.32 6.88023V9.4525H163.543V10.7686H165.32V17.8274C165.32 19.8014 166.149 20.6389 168.34 20.6389C168.814 20.6389 169.228 20.5791 169.702 20.5193V19.0836Z" fill="white"/>
<path fill-rule="evenodd" clip-rule="evenodd" d="M172.073 20.338H173.613V9.39087H172.073V20.338ZM171.777 6.51949H173.85V4.42578H171.777V6.51949Z" fill="white"/>
<path fill-rule="evenodd" clip-rule="evenodd" d="M180.774 20.578C183.972 20.578 185.215 18.0656 185.215 14.8951C185.215 11.7246 183.972 9.15234 180.774 9.15234C177.576 9.15234 176.332 11.7246 176.332 14.8951C176.391 18.0656 177.635 20.578 180.774 20.578ZM178.168 14.8951C178.168 12.1434 179.056 10.4684 180.833 10.4684C182.61 10.4684 183.498 12.1434 183.498 14.8951C183.498 17.6468 182.61 19.3218 180.833 19.3218C179.056 19.262 178.168 17.6468 178.168 14.8951Z" fill="white"/>
<path d="M187.887 20.3388H189.426V15.8522C189.426 13.8782 190.433 10.7077 192.506 10.7077C194.105 10.7077 194.105 12.3826 194.105 14.2969V20.3388H195.645V12.5023C195.645 10.7077 194.697 9.15234 192.861 9.15234C190.433 9.15234 189.782 11.0666 189.486 11.9041H189.426V9.39162H187.887V20.3388Z" fill="white"/>
<path d="M201.565 13.5803C200.677 13.1017 199.611 12.7428 199.611 11.8455C199.611 11.0678 200.499 10.4098 201.802 10.4098C202.868 10.4098 203.934 10.7687 204.349 10.8884V9.45267C203.875 9.33303 202.986 9.09375 201.802 9.09375C199.374 9.09375 198.071 10.2303 198.071 11.9651C198.071 13.7597 199.552 14.3579 200.499 14.9561L201.506 15.4945C202.157 15.8534 203.46 16.332 203.46 17.4686C203.46 18.7248 202.335 19.2632 200.795 19.2632C199.552 19.2632 198.249 18.7846 198.012 18.665V20.1007C198.426 20.2203 199.552 20.5793 200.973 20.5793C203.519 20.5793 205 19.4427 205 17.2891C205 15.3749 203.638 14.7767 202.453 14.1785L201.565 13.5803Z" fill="white"/>
<path d="M56.707 23.8086H204.348" stroke="#F68A39" stroke-width="1.4775" stroke-miterlimit="3.8637"/>
<path fill-rule="evenodd" clip-rule="evenodd" d="M60.3177 32.422C60.14 32.4818 59.8439 32.6015 59.4294 32.6015C58.1857 32.6015 57.7711 31.4051 57.7711 30.5078H60.4361V30.2685C60.4361 29.1917 59.9031 28.4141 58.7779 28.4141C58.1857 28.4141 56.8828 28.6533 56.8828 30.6274C56.8828 32.422 57.7711 33.2595 59.1333 33.2595C59.607 33.2595 59.9031 33.1997 60.2585 33.08V32.422H60.3177ZM57.7711 29.9096C57.7711 29.7301 57.9488 29.0721 58.6595 29.0721C59.3109 29.0721 59.4886 29.6105 59.4886 29.9096H57.7711Z" fill="#F68A39"/>
<path d="M61.3867 33.1423H62.2751V31.1683C62.2751 30.2709 62.6896 29.254 63.3411 29.254C63.9333 29.254 63.9333 29.7326 63.9333 30.57V33.0825H64.8216V30.8691C64.8216 30.0915 65.2954 29.254 65.8284 29.254C66.4798 29.254 66.4798 29.7326 66.4798 30.57V33.0825H67.3682V29.8522C67.3682 29.254 67.1905 28.2969 66.1245 28.2969C65.3546 28.2969 64.9993 28.8951 64.8216 29.254C64.7624 28.8353 64.4663 28.2969 63.6372 28.2969C62.8081 28.2969 62.5119 28.9549 62.3343 29.3138V28.4165H61.4459V33.1423H61.3867Z" fill="white"/>
<path fill-rule="evenodd" clip-rule="evenodd" d="M68.6094 35.2336H69.4977V32.5417C69.6162 32.7809 69.9715 33.2595 70.7414 33.2595C71.8074 33.2595 72.3404 32.3024 72.3404 30.7471C72.3404 29.431 71.8666 28.4141 70.8006 28.4141C70.0307 28.4141 69.6162 28.9524 69.5569 29.1917V28.4739H68.6686V35.2336H68.6094ZM69.4385 30.8667C69.4385 30.089 69.7346 29.1319 70.4453 29.1319C71.2744 29.1319 71.3336 30.1489 71.3336 30.8667C71.3336 31.8238 71.0967 32.6015 70.4453 32.6015C69.6754 32.6015 69.4385 31.6444 69.4385 30.8667Z" fill="white"/>
<path fill-rule="evenodd" clip-rule="evenodd" d="M75.0057 33.2583C76.3678 33.2583 77.0193 32.3012 77.0193 30.8655C77.0193 29.37 76.3678 28.4727 75.0057 28.4727C73.6436 28.4727 72.9922 29.4298 72.9922 30.8655C72.9922 32.3012 73.6436 33.2583 75.0057 33.2583ZM73.9397 30.8655C73.9397 30.0878 74.0582 29.1307 75.0057 29.1307C75.9533 29.1307 76.0717 30.1476 76.0717 30.8655C76.0717 31.5833 75.9533 32.6003 75.0057 32.6003C74.0582 32.6003 73.9397 31.5833 73.9397 30.8655Z" fill="white"/>
<path d="M78.7411 33.1413H79.6887L80.577 29.9708H80.6363L81.5838 33.1413H82.4721L83.5381 28.5352H82.709L81.9391 31.8851L80.9324 28.5352H80.2809L79.2741 31.8851L78.5635 28.5352H77.7344L78.7411 33.1413Z" fill="white"/>
<path fill-rule="evenodd" clip-rule="evenodd" d="M87.6185 32.422C87.4408 32.4818 87.1447 32.6015 86.7301 32.6015C85.4865 32.6015 85.0719 31.4051 85.0719 30.5078H87.7369V30.2685C87.7369 29.1917 87.2039 28.4141 86.0787 28.4141C85.4865 28.4141 84.1836 28.6533 84.1836 30.6274C84.1836 32.422 85.0719 33.2595 86.434 33.2595C86.9078 33.2595 87.2039 33.1997 87.5593 33.08V32.422H87.6185ZM85.0719 29.9096C85.0719 29.7301 85.2496 29.0721 85.9603 29.0721C86.6117 29.0721 86.7894 29.6105 86.7894 29.9096H85.0719Z" fill="white"/>
<path d="M88.6875 33.1399H89.5758V31.1658C89.5758 29.7301 90.2273 29.3712 90.9972 29.3712V28.4141C90.1088 28.4141 89.6943 29.0721 89.5758 29.431V28.4739H88.6875V33.1399Z" fill="white"/>
<path fill-rule="evenodd" clip-rule="evenodd" d="M91.8834 33.1374H92.7718V28.5312H91.8834V33.1374ZM91.8242 27.4544H92.8902V26.4375H91.8242V27.4544Z" fill="white"/>
<path d="M94.1953 33.1423H95.0836V31.1683C95.0836 30.2709 95.5574 29.254 96.2681 29.254C96.9195 29.254 96.9195 29.7326 96.9195 30.57V33.0825H97.8079V29.8522C97.8079 29.254 97.6302 28.2969 96.5642 28.2969C95.6166 28.2969 95.2613 29.0147 95.0836 29.3736V28.3567H94.1953V33.1423Z" fill="white"/>
<path fill-rule="evenodd" clip-rule="evenodd" d="M102.489 28.5337H101.6V29.1917C101.482 28.9524 101.127 28.4141 100.416 28.4141C99.2316 28.4141 98.7578 29.5506 98.7578 30.8069C98.7578 32.0033 99.1131 33.1399 100.357 33.1399C101.127 33.1399 101.541 32.6015 101.6 32.3622V33.08C101.6 33.6184 101.6 34.5756 100.238 34.5756C99.7054 34.5756 99.1724 34.3363 98.9355 34.2166V35.1139C99.1131 35.1738 99.6461 35.2934 100.357 35.2934C101.719 35.2934 102.489 34.755 102.489 33.3792V28.5337ZM99.7054 30.8069C99.7054 30.089 99.8238 29.0721 100.594 29.0721C101.364 29.0721 101.6 30.0292 101.6 30.6872C101.6 31.4051 101.304 32.422 100.594 32.422C99.8238 32.4818 99.7054 31.4051 99.7054 30.8069Z" fill="white"/>
<path fill-rule="evenodd" clip-rule="evenodd" d="M107.345 26.4375H106.457V31.2231C106.457 31.8213 106.516 33.257 108.234 33.257C109.537 33.257 110.07 32.2999 110.07 30.8642C110.07 29.6678 109.773 28.4116 108.53 28.4116C107.819 28.4116 107.464 28.8901 107.345 29.1294V26.4375ZM107.345 30.8044C107.345 30.1464 107.582 29.0696 108.293 29.0696C109.004 29.0696 109.122 30.1464 109.122 30.8044C109.122 31.6419 108.944 32.5392 108.174 32.5392C107.345 32.599 107.345 31.5222 107.345 30.8044Z" fill="white"/>
<path d="M113.744 33.1413H114.632V28.5352H113.744V30.5092C113.744 31.4065 113.27 32.4235 112.559 32.4235C111.908 32.4235 111.908 31.9449 111.908 31.1074V28.595H111.02V31.8253C111.02 32.4235 111.197 33.3806 112.263 33.3806C113.211 33.3806 113.566 32.6628 113.744 32.3038V33.1413Z" fill="white"/>
<path fill-rule="evenodd" clip-rule="evenodd" d="M117.173 30.2685C116.877 30.089 116.522 29.9096 116.522 29.6105C116.522 29.3114 116.877 29.1319 117.292 29.1319C117.765 29.1319 118.239 29.3712 118.358 29.431V28.5935C118.121 28.5337 117.765 28.4141 117.292 28.4141C116.344 28.4141 115.693 28.8926 115.693 29.7301C115.693 30.3881 116.166 30.7471 116.581 30.9863L116.996 31.2854C117.292 31.4649 117.706 31.7042 117.706 32.0631C117.706 32.5417 117.173 32.6613 116.759 32.6613C116.285 32.6613 115.693 32.422 115.574 32.3622V33.1399C115.752 33.1997 116.166 33.3193 116.818 33.3193C117.825 33.3193 118.535 32.9006 118.535 31.9435C118.535 31.1658 117.943 30.8667 117.469 30.5676L117.173 30.2685Z" fill="white"/>
<path fill-rule="evenodd" clip-rule="evenodd" d="M119.544 33.1374H120.433V28.5312H119.544V33.1374ZM119.426 27.4544H120.492V26.4375H119.426V27.4544Z" fill="white"/>
<path d="M121.852 33.1423H122.74V31.1683C122.74 30.2709 123.214 29.254 123.924 29.254C124.576 29.254 124.576 29.7326 124.576 30.57V33.0825H125.464V29.8522C125.464 29.254 125.286 28.2969 124.22 28.2969C123.273 28.2969 122.918 29.0147 122.74 29.3736V28.3567H121.852V33.1423Z" fill="white"/>
<path fill-rule="evenodd" clip-rule="evenodd" d="M129.845 32.422C129.667 32.4818 129.371 32.6015 128.957 32.6015C127.713 32.6015 127.298 31.4051 127.298 30.5078H129.963V30.2685C129.963 29.1917 129.43 28.4141 128.305 28.4141C127.713 28.4141 126.41 28.6533 126.41 30.6274C126.41 32.422 127.298 33.2595 128.661 33.2595C129.134 33.2595 129.43 33.1997 129.786 33.08V32.422H129.845ZM127.298 29.9096C127.298 29.7301 127.476 29.0721 128.187 29.0721C128.838 29.0721 129.016 29.6105 129.016 29.9096H127.298Z" fill="white"/>
<path fill-rule="evenodd" clip-rule="evenodd" d="M132.099 30.2685C131.803 30.089 131.448 29.9096 131.448 29.6105C131.448 29.3114 131.803 29.1319 132.217 29.1319C132.691 29.1319 133.165 29.3712 133.283 29.431V28.5935C133.047 28.5337 132.691 28.4141 132.217 28.4141C131.27 28.4141 130.618 28.8926 130.618 29.7301C130.618 30.3881 131.092 30.7471 131.507 30.9863L131.921 31.2854C132.217 31.4649 132.632 31.7042 132.632 32.0631C132.632 32.5417 132.099 32.6613 131.684 32.6613C131.211 32.6613 130.618 32.422 130.5 32.3622V33.1399C130.678 33.1997 131.092 33.3193 131.744 33.3193C132.75 33.3193 133.461 32.9006 133.461 31.9435C133.461 31.1658 132.869 30.8667 132.395 30.5676L132.099 30.2685Z" fill="white"/>
<path fill-rule="evenodd" clip-rule="evenodd" d="M135.536 30.2685C135.24 30.089 134.885 29.9096 134.885 29.6105C134.885 29.3114 135.24 29.1319 135.655 29.1319C136.129 29.1319 136.602 29.3712 136.721 29.431V28.5935C136.484 28.5337 136.129 28.4141 135.655 28.4141C134.707 28.4141 134.056 28.8926 134.056 29.7301C134.056 30.3881 134.53 30.7471 134.944 30.9863L135.359 31.2854C135.655 31.4649 136.07 31.7042 136.07 32.0631C136.07 32.5417 135.536 32.6613 135.122 32.6613C134.648 32.6613 134.056 32.422 133.938 32.3622V33.1399C134.115 33.1997 134.53 33.3193 135.181 33.3193C136.188 33.3193 136.899 32.9006 136.899 31.9435C136.899 31.1658 136.306 30.8667 135.833 30.5676L135.536 30.2685Z" fill="white"/>
<path d="M141.339 33.1413H142.228L143.175 29.9708L144.123 33.1413H145.07L146.077 28.5352H145.248L144.537 31.8851H144.478L143.471 28.5352H142.82L141.813 31.8851L141.103 28.5352H140.273L141.339 33.1413Z" fill="white"/>
<path fill-rule="evenodd" clip-rule="evenodd" d="M147.141 33.1374H148.03V28.5312H147.141V33.1374ZM147.082 27.4544H148.148V26.4375H147.082V27.4544Z" fill="white"/>
<path d="M151.878 32.5411C151.76 32.6009 151.582 32.6009 151.405 32.6009C150.753 32.6009 150.694 32.1223 150.694 31.7036V29.1911H151.938V28.5331H150.694V26.918L149.806 27.4564V28.5331H148.977V29.1911H149.806V32.1223C149.806 32.7804 150.102 33.2589 151.168 33.2589C151.405 33.2589 151.642 33.2589 151.878 33.1991V32.5411Z" fill="white"/>
<path d="M152.766 33.1437H153.654V31.1697C153.654 30.2724 154.128 29.2554 154.838 29.2554C155.49 29.2554 155.49 29.734 155.49 30.5715V33.0839H156.378V29.8536C156.378 29.2554 156.201 28.2983 155.135 28.2983C154.187 28.2983 153.832 29.0161 153.654 29.3751V26.3242H152.766V33.1437Z" fill="white"/>
<path d="M162.835 32.5411C162.717 32.6009 162.539 32.6009 162.362 32.6009C161.71 32.6009 161.651 32.1223 161.651 31.7036V29.1911H162.895V28.5331H161.651V26.918L160.763 27.4564V28.5331H159.934V29.1911H160.763V32.1223C160.763 32.7804 161.059 33.2589 162.125 33.2589C162.362 33.2589 162.599 33.2589 162.835 33.1991V32.5411Z" fill="white"/>
<path fill-rule="evenodd" clip-rule="evenodd" d="M166.802 32.422C166.624 32.4818 166.328 32.6015 165.914 32.6015C164.67 32.6015 164.256 31.4051 164.256 30.5078H166.921V30.2685C166.921 29.1917 166.388 28.4141 165.262 28.4141C164.67 28.4141 163.367 28.6533 163.367 30.6274C163.367 32.422 164.256 33.2595 165.618 33.2595C166.091 33.2595 166.388 33.1997 166.743 33.08V32.422H166.802ZM164.256 29.9096C164.256 29.7301 164.433 29.0721 165.144 29.0721C165.795 29.0721 165.973 29.6105 165.973 29.9096H164.256Z" fill="white"/>
<path d="M171.068 32.4818C170.831 32.5417 170.595 32.6015 170.358 32.6015C168.936 32.6015 168.522 31.4649 168.522 30.5078C168.522 29.6703 168.877 29.0721 169.469 29.0721C170.121 29.0721 170.18 29.6703 170.18 30.0292H171.187C171.187 29.2515 170.831 28.4141 169.529 28.4141C168.166 28.4141 167.574 29.3712 167.574 30.6872C167.574 31.8238 168.048 33.2595 169.825 33.2595C170.358 33.2595 170.772 33.1997 171.068 33.08V32.4818Z" fill="white"/>
<path d="M171.898 33.1437H172.787V31.1697C172.787 30.2724 173.261 29.2554 173.971 29.2554C174.623 29.2554 174.623 29.734 174.623 30.5715V33.0839H175.511V29.8536C175.511 29.2554 175.333 28.2983 174.267 28.2983C173.32 28.2983 172.964 29.0161 172.787 29.3751V26.3242H171.898V33.1437Z" fill="white"/>
<path d="M176.754 33.1423H177.642V31.1683C177.642 30.2709 178.116 29.254 178.827 29.254C179.478 29.254 179.478 29.7326 179.478 30.57V33.0825H180.366V29.8522C180.366 29.254 180.189 28.2969 179.123 28.2969C178.175 28.2969 177.82 29.0147 177.642 29.3736V28.3567H176.754V33.1423Z" fill="white"/>
<path fill-rule="evenodd" clip-rule="evenodd" d="M183.384 33.2583C184.747 33.2583 185.398 32.3012 185.398 30.8655C185.398 29.37 184.747 28.4727 183.384 28.4727C182.022 28.4727 181.371 29.4298 181.371 30.8655C181.312 32.3012 181.963 33.2583 183.384 33.2583ZM182.318 30.8655C182.318 30.0878 182.437 29.1307 183.384 29.1307C184.332 29.1307 184.45 30.1476 184.45 30.8655C184.45 31.5833 184.332 32.6003 183.384 32.6003C182.437 32.6003 182.318 31.5833 182.318 30.8655Z" fill="white"/>
<path d="M186.465 33.1374H187.353V26.4375H186.465V33.1374Z" fill="white"/>
<path fill-rule="evenodd" clip-rule="evenodd" d="M190.494 33.2583C191.856 33.2583 192.507 32.3012 192.507 30.8655C192.507 29.37 191.856 28.4727 190.494 28.4727C189.132 28.4727 188.48 29.4298 188.48 30.8655C188.421 32.3012 189.072 33.2583 190.494 33.2583ZM189.428 30.8655C189.428 30.0878 189.546 29.1307 190.494 29.1307C191.441 29.1307 191.56 30.1476 191.56 30.8655C191.56 31.5833 191.441 32.6003 190.494 32.6003C189.546 32.6003 189.428 31.5833 189.428 30.8655Z" fill="white"/>
<path fill-rule="evenodd" clip-rule="evenodd" d="M196.891 28.5337H196.003V29.1917C195.884 28.9524 195.529 28.4141 194.818 28.4141C193.634 28.4141 193.16 29.5506 193.16 30.8069C193.16 32.0033 193.515 33.1399 194.759 33.1399C195.529 33.1399 195.944 32.6015 196.003 32.3622V33.08C196.003 33.6184 196.003 34.5756 194.641 34.5756C194.108 34.5756 193.575 34.3363 193.338 34.2166V35.1139C193.515 35.1738 194.048 35.2934 194.759 35.2934C196.121 35.2934 196.891 34.755 196.891 33.3792V28.5337ZM194.108 30.8069C194.108 30.089 194.226 29.0721 194.996 29.0721C195.766 29.0721 196.003 30.0292 196.003 30.6872C196.003 31.4051 195.707 32.422 194.996 32.422C194.226 32.4818 194.108 31.4051 194.108 30.8069Z" fill="white"/>
<path d="M198.601 35.1752H199.489L201.74 28.5352H200.792L199.726 31.8851H199.667L198.483 28.5352H197.535L199.253 33.2011L198.601 35.1752Z" fill="white"/>
</svg>
